<?xml version="1.0" encoding="utf-8"?>
<svg version="1.1" id="Layer_1" xmlns="http://www.w3.org/2000/svg" xmlns:xlink="http://www.w3.org/1999/xlink" x="0px" y="0px"
	 width="32px" height="32px" viewBox="0 0 32 32">
<g>
	<path d="M25.9990234,11v7h-0.1113281c0-4-1.9804688-4-4.4238281-4h-6.6367188c-2.4423828,0-4.4248047,4-4.4248047,4H6v-7H5v10h1v-2h19.9990234v2h1v-2v-1v-7H25.9990234z"/>
	<circle cx="8.2070312" cy="15.6123047" r="2.0283203"/>
	<path d="M16,31C7.7294922,31,1,24.2714844,1,16S7.7294922,1,16,1s14.9990234,6.7285156,14.9990234,15S24.2705078,31,16,31z		 M16,1.7724609C8.1552734,1.7724609,1.7724609,8.1542969,1.7724609,16c0,7.84375,6.3828125,14.2255859,14.2275391,14.2255859		S30.2265625,23.84375,30.2265625,16C30.2265625,8.1542969,23.8447266,1.7724609,16,1.7724609z"/>
</g>
</svg>
