<?xml version="1.0" encoding="utf-8"?>
<svg version="1.1" xmlns="http://www.w3.org/2000/svg" xmlns:xlink="http://www.w3.org/1999/xlink" x="0px" y="0px"
	 width="32px" height="41px" viewBox="0 0 32 41">
<path d="M16.0654297,1.8222656C24.4296875,1.8222656,30.5,7.5273438,30.5,15.3876953
	c0,2.7084961-0.1542969,5.2304688-2.0517578,8.671875c-1.5693359,2.8476562-9.8496094,11.3642578-12.3662109,13.9228516
	C13.5639648,35.3056641,5.128418,26.28125,3.5581055,23.859375C1.8183594,21.1757812,1.5,19.2373047,1.5,16.3867188
	C1.5,8.355957,8.0341797,1.8222656,16.0654297,1.8222656 M25.5673828,11v7h-0.1113281c0-4-1.9804688-4-4.4238281-4h-6.6376953
	c-2.4423828,0-4.4248047,4-4.4248047,4H5.5673828v-7h-1v10h1v-2h20v2h1V11H25.5673828z M7.7744141,17.640625
	c1.1201172,0,2.0292969-0.9082031,2.0292969-2.0273438c0-1.1201172-0.9091797-2.0292969-2.0292969-2.0292969
	c-1.1181641,0-2.0253906,0.9091797-2.0253906,2.0292969C5.7490234,16.7324219,6.65625,17.640625,7.7744141,17.640625z"/>
</svg>
