<?xml version="1.0" encoding="utf-8"?>
<svg version="1.1"  xmlns="http://www.w3.org/2000/svg" xmlns:xlink="http://www.w3.org/1999/xlink" x="0px" y="0px"
	 width="25px" height="41px" viewBox="0 0 25 41">
<path d="M12.5,1C18.841,1,24,6.159,24,12.5c0,2.349-1.232,4.997-1.758,6.127c-0.604,1.298-7.282,15.03-9.741,20.083
	c-2.46-5.076-9.102-18.772-9.824-20.219C1.564,16.261,1,14.245,1,12.5C1,6.159,6.159,1,12.5,1 M12.5,8.75
	c-2.071,0-3.75,1.679-3.75,3.75c0,2.071,1.679,3.75,3.75,3.75c2.07,0,3.75-1.679,3.75-3.75C16.25,10.429,14.57,8.75,12.5,8.75z"/>
</svg>